<svg width="24" height="24" viewBox="0 0 24 24" fill="none" xmlns="http://www.w3.org/2000/svg">
<path opacity="0.8" d="M18.6 9C20.68 8.27 22 7.2 22 6C22 3.79 17.52 2 12 2C6.48 2 2 3.79 2 6C2 7.2 3.32 8.27 5.4 9C7.16 8.38 9.47 8 12 8C14.53 8 16.84 8.38 18.6 9Z" fill="black"/>
<path opacity="0.4" d="M5.4 15C3.32 15.73 2 16.8 2 18C2 20.21 6.48 22 12 22C17.52 22 22 20.21 22 18C22 16.8 20.68 15.73 18.6 15C16.84 15.62 14.53 16 12 16C9.47 16 7.16 15.62 5.4 15Z" fill="black"/>
<path opacity="0.6" d="M22 12C22 10.8 20.68 9.73 18.6 9C16.84 9.62 14.53 10 12 10C9.47 10 7.16 9.62 5.4 9C3.32 9.73 2 10.8 2 12C2 13.2 3.32 14.27 5.4 15C7.16 14.38 9.47 14 12 14C14.53 14 16.84 14.38 18.6 15C20.68 14.27 22 13.2 22 12Z" fill="black"/>
<path d="M18.6004 9C16.8404 8.38 14.5304 8 12.0004 8C9.47039 8 7.16039 8.38 5.40039 9C7.16039 9.62 9.47039 10 12.0004 10C14.5304 10 16.8404 9.62 18.6004 9Z" fill="black"/>
<path opacity="0.8" d="M5.40039 15C7.16039 15.62 9.47039 16 12.0004 16C14.5304 16 16.8404 15.62 18.6004 15C16.8404 14.38 14.5304 14 12.0004 14C9.47039 14 7.16039 14.38 5.40039 15Z" fill="black"/>
</svg>
