<svg width="20" height="20" viewBox="0 0 20 20" fill="none" xmlns="http://www.w3.org/2000/svg">
<g id="Logo">
<path id="Union" fill-rule="evenodd" clip-rule="evenodd" d="M17.9272 3.90332C16.1966 1.65642 13.532 0.165965 10.5146 0.0130119C10.3442 0.00437222 10.1726 0 10 0C7.58375 0 5.36766 0.856955 3.63907 2.28351C1.4166 4.11766 0 6.8934 0 10C0 12.4533 0.883426 14.7002 2.34951 16.4401C3.24919 17.5077 4.36828 18.3844 5.63729 19.0007C6.95569 19.6409 8.43591 20 10 20C10.4047 20 10.8038 19.976 11.1959 19.9292C11.3368 19.9124 11.4768 19.8927 11.6159 19.8701C11.6176 19.8698 11.6194 19.8696 11.6211 19.8693C16.373 19.0947 20 14.9709 20 10C20 7.70517 19.227 5.59089 17.9272 3.90332ZM11.1959 18.9212C10.8046 18.9732 10.4055 19 10 19C8.42455 19 6.94365 18.5952 5.65563 17.8839L5.65563 8.08275L2.77424 15.3664C1.65959 13.868 1 12.011 1 10C1 7.17273 2.30367 4.64996 4.34267 3L11.1959 3V18.9212ZM12.0578 18.7637L17.4905 5.00902C18.4441 6.43733 19 8.15374 19 10C19 14.2626 16.0367 17.833 12.0578 18.7637Z" fill="black"/>
</g>
</svg>
