<svg width="170" height="32" viewBox="0 0 170 32" fill="none" xmlns="http://www.w3.org/2000/svg">
<path d="M23.3054 8.07433C20.9285 4.98835 17.1965 3 13.0001 3C9.36347 3 6.07562 4.49323 3.71622 6.9H14.5548V28.908C14.7403 28.8859 14.9245 28.8599 15.1076 28.83L23.3054 8.07433Z" fill="black"/>
<path d="M7.3524 27.7124V13.5076L3.05444 24.3721C4.22966 25.7667 5.69287 26.9108 7.3524 27.7124Z" fill="black"/>
<path d="M15.1075 28.8301C21.2849 27.8231 26 22.4622 26 16C26 13.0168 24.9951 10.2682 23.3054 8.07435L15.1075 28.8301Z" fill="#99FFEE"/>
<path d="M14.5547 28.908V6.90002H3.71614C1.41741 9.2449 0 12.4569 0 16C0 19.1893 1.14845 22.1103 3.05436 24.3721L7.35232 13.5076V27.7125C9.06024 28.5375 10.9761 29 13 29C13.5261 29 14.0449 28.9688 14.5547 28.908Z" fill="#99FFEE"/>
<path d="M75.377 7.07836C74.254 6.53387 72.9495 6.26163 71.4635 6.26163C70.2497 6.26163 69.1267 6.45447 68.0831 6.86283C67.0395 7.25985 66.1434 7.80434 65.3834 8.50764C64.6234 9.19959 64.0562 10.0277 63.7046 10.9805L67.2551 12.7047C67.584 11.9107 68.1172 11.2641 68.8318 10.7536C69.5465 10.2432 70.3745 9.99363 71.3047 9.99363C72.3029 9.99363 73.097 10.2545 73.6982 10.7763C74.2994 11.2981 74.5943 11.9447 74.5943 12.7161V13.3059L69.2515 14.1794C67.8336 14.4062 66.6652 14.7806 65.735 15.3024C64.8049 15.8355 64.1129 16.4934 63.6592 17.2761C63.2054 18.0588 62.9786 18.955 62.9786 19.9419C62.9786 20.9288 63.2281 21.8929 63.7386 22.6756C64.249 23.4583 64.975 24.0596 65.9052 24.4793C66.8467 24.899 67.947 25.1145 69.2061 25.1145C70.2044 25.1145 71.1005 24.9784 71.9059 24.7175C72.7113 24.4566 73.4373 24.0482 74.0952 23.5264C74.3674 23.3109 74.6056 23.0613 74.8439 22.8004V24.7175H78.9615V12.6934C78.9615 11.4343 78.6439 10.3226 78.02 9.34705C77.3848 8.37151 76.5113 7.62284 75.3883 7.07836H75.377ZM74.583 17.3782C74.583 18.1723 74.3901 18.9096 74.0158 19.6016C73.6414 20.2822 73.1083 20.8267 72.405 21.2123C71.713 21.598 70.9077 21.7909 70.0002 21.7909C69.2969 21.7909 68.6957 21.6094 68.2306 21.2464C67.7542 20.8834 67.516 20.3843 67.516 19.7717C67.516 19.1592 67.7201 18.6147 68.1512 18.229C68.5709 17.8433 69.2061 17.5711 70.0682 17.4123L74.5716 16.6069V17.3782H74.583Z" fill="black"/>
<path d="M82.5007 24.7061H86.8792V10.5381H92.6417V6.66997H82.5007V24.7061Z" fill="black"/>
<path d="M114.173 10.5381H117.02V24.7061H121.364V6.66997H114.173V10.5381Z" fill="black"/>
<path d="M121.364 0H117.02V4.63949H121.364V0Z" fill="black"/>
<path d="M137.71 7.12373C136.678 6.54521 135.509 6.26163 134.182 6.26163C132.855 6.26163 131.777 6.54521 130.813 7.10104C130.076 7.5321 129.497 8.1333 129.077 8.88197V6.65865H124.971V24.6948H129.35V14.1227C129.35 13.3286 129.509 12.648 129.815 12.0695C130.121 11.491 130.552 11.0486 131.108 10.7423C131.664 10.436 132.288 10.2772 133.002 10.2772C133.717 10.2772 134.341 10.436 134.897 10.7423C135.453 11.0486 135.884 11.491 136.19 12.0695C136.496 12.648 136.655 13.3286 136.655 14.1227V24.6948H140.999V13.1017C140.999 11.7519 140.716 10.5608 140.137 9.53989C139.559 8.50764 138.765 7.71359 137.733 7.13507L137.71 7.12373Z" fill="black"/>
<path d="M148.747 0H144.368V24.7061H151.106V20.8834H148.747V0Z" fill="black"/>
<path d="M164.799 6.66997L160.148 19.1024L155.474 6.66997H150.801L157.834 24.4452L155.077 31.3307H159.751L169.506 6.66997H164.799Z" fill="black"/>
<path d="M52.6338 6.66997L46.8486 21.3144V6.66997H39.1351L32 24.7061H36.7075L42.5041 10.0503V24.7061H50.2176L56.0028 10.0503V24.7061H60.3474V6.66997H52.6338Z" fill="black"/>
<path d="M107.627 8.77989C107.06 8.08794 106.39 7.53211 105.642 7.1124C104.621 6.54522 103.441 6.27298 102.091 6.27298C100.435 6.27298 98.9491 6.65866 97.6446 7.41867C96.3401 8.17869 95.3078 9.22229 94.5478 10.5495C93.7878 11.8767 93.4021 13.3853 93.4021 15.0869C93.4021 16.7884 93.7878 18.2857 94.5478 19.6243C95.3078 20.9741 96.3515 22.0291 97.6786 22.8118C97.7467 22.8458 97.8148 22.8798 97.8715 22.9139C99.1533 23.6172 100.571 23.9802 102.148 23.9802C103.498 23.9802 104.689 23.7079 105.71 23.1521C106.266 22.8572 106.731 22.4601 107.162 22.0064C107.23 21.9383 107.309 21.8703 107.377 21.7909V23.81C107.377 24.4112 107.287 24.9444 107.105 25.4208C106.356 26.9295 104.678 27.9844 102.715 28.0071C102.59 28.0071 102.477 27.9958 102.352 27.9844C102.227 27.9844 102.091 27.9617 101.966 27.9504C100.242 27.7348 98.8016 26.7253 98.1551 25.33L94.5365 27.0883C94.9108 27.9958 95.4553 28.8011 96.1926 29.4931C97.0207 30.2758 98.0076 30.8883 99.1646 31.3307C100.31 31.7731 101.558 32 102.908 32C104.632 32 106.152 31.6484 107.468 30.9337C108.784 30.2304 109.827 29.2549 110.588 28.0184C111.348 26.782 111.733 25.3754 111.733 23.81V6.67H107.627V8.77989ZM106.799 17.6392C106.402 18.3651 105.857 18.9437 105.154 19.352C104.961 19.4655 104.757 19.5562 104.553 19.6356C103.997 19.8511 103.396 19.9646 102.715 19.9646C102.035 19.9646 101.411 19.8511 100.843 19.6243C100.639 19.5449 100.435 19.4428 100.254 19.3407C99.539 18.921 98.9718 18.3424 98.5634 17.6165C98.1551 16.8905 97.9509 16.0624 97.9509 15.1322C97.9509 14.2021 98.1551 13.374 98.5634 12.648C98.9718 11.922 99.539 11.3435 100.276 10.9238C101.002 10.5041 101.819 10.2886 102.726 10.2886C103.634 10.2886 104.428 10.5041 105.131 10.9238C105.823 11.3435 106.379 11.922 106.787 12.648C107.196 13.374 107.4 14.2021 107.4 15.1322C107.4 16.0624 107.207 16.9245 106.799 17.6505V17.6392Z" fill="black"/>
</svg>
