<svg width="32" height="32" viewBox="0 0 32 32" fill="none" xmlns="http://www.w3.org/2000/svg">
<path d="M17.0945 23.8806C16.7341 23.9175 16.3684 23.9364 15.9982 23.9364C12.3183 23.9364 9.07492 22.0674 7.16558 19.2268C6.05461 20.2953 5.36328 21.797 5.36328 23.4602C5.36328 26.7038 7.99272 29.3332 11.2363 29.3332C14.3385 29.3332 16.879 26.928 17.0945 23.8806Z" fill="#1E4480"/>
<path d="M11.8736 3.49707L11.8736 17.6212C14.8186 17.9378 17.1117 20.4312 17.1117 23.4603C17.1117 23.6016 17.1067 23.7418 17.0969 23.8807C16.7365 23.9176 16.3707 23.9365 16.0006 23.9365C12.3207 23.9365 9.07731 22.0675 7.16797 19.2269C8.08036 18.3494 9.2758 17.764 10.6038 17.6212L10.6038 4.13578C11.0105 3.8958 11.4345 3.68212 11.8736 3.49707Z" fill="#152E51"/>
<path d="M17.0945 23.8808C22.4529 23.332 26.6331 18.805 26.6331 13.3017C26.6331 7.42816 21.8717 2.66675 15.9982 2.66675C14.5347 2.66675 13.1402 2.96237 11.8712 3.49717L11.8712 17.6213C14.8162 17.9379 17.1093 20.4313 17.1093 23.4604C17.1093 23.6017 17.1043 23.7419 17.0945 23.8808Z" fill="#DEDEDE"/>
<path d="M10.6014 4.13588C7.46641 5.98573 5.36328 9.39809 5.36328 13.3017C5.36328 15.4953 6.02742 17.5338 7.16558 19.227C8.07798 18.3495 9.27341 17.7641 10.6014 17.6213L10.6014 4.13588Z" fill="#DEDEDE"/>
</svg>
