<svg width="32" height="32" viewBox="0 0 32 32" fill="none" xmlns="http://www.w3.org/2000/svg">
<path d="M25.758 16C25.758 14.1213 25.2148 12.2721 24.1778 10.6984L28 6.87213L25.1358 4L21.3136 7.82623C18.0938 5.72131 13.9259 5.72131 10.7062 7.82623L6.87407 4L4 6.87213L7.82222 10.6984C5.71852 13.9246 5.71852 18.0852 7.82222 21.3115L4 25.1279L6.87407 28L10.6963 24.1738C13.916 26.2787 18.084 26.2787 21.3037 24.1738L25.1259 28L28 25.1279L24.1778 21.3016C25.2148 19.7279 25.7679 17.8885 25.758 16ZM10.3111 16C10.3111 13.6787 11.7136 11.5836 13.8667 10.718C16.0198 9.85246 18.4889 10.3738 20.0988 12.0459C21.7086 13.718 22.1432 16.2066 21.1852 18.3213L17.4321 14.5639L14.5679 17.4361L18.321 21.1934C16.563 21.9803 14.5185 21.8328 12.8988 20.7803C11.2889 19.7279 10.3111 17.9279 10.3111 16Z" fill="black"/>
</svg>
