<svg width="24" height="24" viewBox="0 0 24 24" fill="none" xmlns="http://www.w3.org/2000/svg">
<path d="M16.1179 2.38948L14.9672 2L14.9214 9.84235L9.14185 2.18024L7.64433 2.8007L13.1959 11.1361L2.61733 8.04516L2 9.76466L12.4357 13.2855L2.64024 16.8291L3.43753 18.184L12.992 15.3012L8.00098 21.6571L9.17784 22L14.4655 16.3775L13.6878 21.971L14.6226 21.7079L16.1746 16.3412L17.863 19.9698L18.4869 19.4456L17.61 15.4369L20.5221 16.9762L20.882 16.3329L18.4978 13.9981L21.8822 13.4802L22 12.7624L18.6963 12.3449L21.9269 9.6445L21.759 8.87694L18.1215 10.8129L20.268 5.67516L19.6888 4.94179L16.7789 9.81852L16.1179 2.38948Z" fill="black"/>
</svg>
