<svg width="24" height="24" viewBox="0 0 24 24" fill="none" xmlns="http://www.w3.org/2000/svg">
<path opacity="0.6" d="M17.1133 11.1408C16.0573 12.8563 14.1622 14 12 14C9.83777 14 7.94269 12.8563 6.88672 11.1408C8.43791 10.4091 10.1712 10 12 10C13.8288 10 15.5621 10.4091 17.1133 11.1408Z" fill="black"/>
<path opacity="0.4" d="M6.88736 11.1409C5.10791 11.9802 3.56806 13.2441 2.39844 14.8018C3.60995 18.961 7.45038 22.0001 12.0006 22.0001C16.5509 22.0001 20.3913 18.961 21.6028 14.8018C20.4332 13.2441 18.8934 11.9802 17.1139 11.1409C16.0579 12.8563 14.1629 14.0001 12.0006 14.0001C9.83841 14.0001 7.94333 12.8563 6.88736 11.1409Z" fill="black"/>
<path opacity="0.8" d="M17.1133 11.1408C17.6756 10.2272 18 9.15149 18 8C18 4.68629 15.3137 2 12 2C8.68629 2 6 4.68629 6 8C6 9.15149 6.32437 10.2272 6.88673 11.1408C8.43792 10.4091 10.1712 10 12 10C13.8288 10 15.5621 10.4091 17.1133 11.1408Z" fill="black"/>
</svg>
