<svg width="24" height="24" viewBox="0 0 24 24" fill="none" xmlns="http://www.w3.org/2000/svg">
<g opacity="0.8">
<path d="M15.0391 13C17.2482 13 19.0391 11.2091 19.0391 9C19.0391 6.79086 17.2482 5 15.0391 5C12.8299 5 11.0391 6.79086 11.0391 9C11.0391 11.2091 12.8299 13 15.0391 13Z" fill="black"/>
<path d="M6.92969 12C8.58654 12 9.92969 10.6569 9.92969 9C9.92969 7.34315 8.58654 6 6.92969 6C5.27283 6 3.92969 7.34315 3.92969 9C3.92969 10.6569 5.27283 12 6.92969 12Z" fill="black"/>
</g>
<path opacity="0.6" d="M10.6086 12.0237C11.5957 12.6337 12.4199 13.4865 13 14.4999C12.1302 16.0194 10.7115 17.1778 9.01791 17.6982C8.19223 16.9531 7.50507 16.0561 7 15.051C7.94142 13.7748 9.17811 12.7317 10.6086 12.0237Z" fill="black"/>
<path opacity="0.4" d="M1 14.5001C1.87269 12.9755 3.29805 11.8144 4.99922 11.2965C5.52096 11.7356 6.19444 12.0001 6.92969 12.0001C7.68203 12.0001 8.3697 11.7231 8.89629 11.2656C9.50536 11.4404 10.0802 11.6974 10.6085 12.0238C9.17807 12.7318 7.9414 13.7748 7 15.051C6.99999 15.051 7.00001 15.0509 7 15.051C7.50507 16.0561 8.19223 16.9532 9.01791 17.6983C9.01793 17.6983 9.01789 17.6983 9.01791 17.6983C10.7115 17.1779 12.1302 16.0193 13 14.4998C12.4199 13.4864 11.5956 12.6338 10.6085 12.0238C11.0264 11.8169 11.4611 11.6385 11.9096 11.4915C12.6425 12.4108 13.772 12.9999 15.039 12.9999C16.2967 12.9999 17.4188 12.4195 18.152 11.5119C20.1094 12.1682 21.7961 13.419 23 15.051C21.5248 17.9867 18.4963 19.9999 15 19.9999C12.7008 19.9999 10.6038 19.1293 9.01791 17.6983C8.3794 17.8945 7.70196 18.0001 6.99999 18.0001C4.43615 18.0001 2.19766 16.5924 1 14.5001Z" fill="black"/>
</svg>
